<svg id="Layer_1" data-name="Layer 1" xmlns="http://www.w3.org/2000/svg" viewBox="0 0 151.83 123.04"><defs><style>.cls-1{fill:none;stroke:#fff;stroke-linecap:round;stroke-linejoin:round;stroke-width:3.31px;}</style></defs><title>blog</title><circle class="cls-1" cx="75.91" cy="67.81" r="41.76"/><circle class="cls-1" cx="75.91" cy="67.81" r="25.98"/><path class="cls-1" d="M187.39,86.6H184.2V85.23a4.33,4.33,0,0,0-4.33-4.33H172a4.33,4.33,0,0,0-4.33,4.33V86.6h-2.14A11.26,11.26,0,0,1,154.1,75.41a11.4,11.4,0,0,0-11.4-11.62H102.79A11.26,11.26,0,0,0,91.38,75,11.4,11.4,0,0,1,80,86.6H58.09a9.61,9.61,0,0,0-9.61,9.61v77.7a9.61,9.61,0,0,0,9.61,9.61h129.3a9.61,9.61,0,0,0,9.61-9.61V96.2A9.61,9.61,0,0,0,187.39,86.6Z" transform="translate(-46.83 -62.13)"/></svg>