<svg id="Layer_1" data-name="Layer 1" xmlns="http://www.w3.org/2000/svg" viewBox="0 0 738.08 1030.41"><defs><style>.cls-1{fill:#f8f8f8;}.cls-1,.cls-3{stroke:#f8f8f8;stroke-miterlimit:10;stroke-width:4px;}.cls-2{font-size:60px;fill:#fff;font-family:CenturyGothic, Century Gothic;}.cls-3{fill:none;}</style></defs><title>logo</title><path class="cls-1" d="M134.92-537.51,86.84-595.25l44.56-52a1.36,1.36,0,0,0-.19-2,1.48,1.48,0,0,0-2,.18L85-597.46,42.72-648.24a1.43,1.43,0,0,0-.76-.47V-649a0,0,0,0,0,0,0l-67.31-1.76v0a0,0,0,0,0,0,0h-1.71l-1.11,0a0,0,0,0,0,0,0h-.42a0,0,0,0,0,0,0v114.63a0,0,0,0,0,0,0h.25v.59a0,0,0,0,0,0,0H33.94a1.48,1.48,0,0,0,2-.23L85-593.07l47.71,57.29a1.48,1.48,0,0,0,2,.21A1.36,1.36,0,0,0,134.92-537.51Zm-100.63-.76H-25.37V-648.13l65.93,1.72,42.58,51.13Z" transform="translate(30.69 664.63)"/><text class="cls-2" transform="translate(217.52 51.54)">Make your dream<tspan x="0" y="72">Become reality!</tspan></text><line class="cls-3" x1="196.98" y1="9.54" x2="196.98" y2="132.03"/><path class="cls-1" d="M561.22,358.25,443,216.26,552.56,88.39a3.34,3.34,0,0,0-.47-4.8,3.63,3.63,0,0,0-5,.45L438.47,210.83l-104-124.89a3.52,3.52,0,0,0-1.86-1.16l0-.82a.07.07,0,0,0-.07-.07L167,79.56v0a.07.07,0,0,0-.07-.07h-4.21L160,79.38a.07.07,0,0,0-.07.06h-1a.07.07,0,0,0-.07.07v281.9a.07.07,0,0,0,.07.07h.61v1.46a.07.07,0,0,0,.07.07H312.89a3.63,3.63,0,0,0,4.82-.56L438.39,221.62l117.33,140.9a3.63,3.63,0,0,0,5,.52A3.34,3.34,0,0,0,561.22,358.25Zm-247.47-1.88H167V86.22l162.14,4.24L433.87,216.2Z" transform="translate(30.69 664.63)"/></svg>