<svg id="Layer_1" data-name="Layer 1" xmlns="http://www.w3.org/2000/svg" viewBox="0 0 186.72 108.52"><defs><style>.cls-1{fill:#ffffff;}</style></defs><title>school</title><g id="_Group_" data-name="&lt;Group&gt;"><path id="_Compound_Path_" data-name="&lt;Compound Path&gt;" class="cls-1" d="M55.22,123.87a7.55,7.55,0,0,0-4.44,11.95l-3.15,18.67a2.75,2.75,0,0,0,2.71,3.21H63.25A2.75,2.75,0,0,0,66,154.57l-2.69-19.46a7.53,7.53,0,0,0-2.57-10.29v-10.1l17,7.38v42.21a9.45,9.45,0,0,0,9.44,9.44h77.59a9.45,9.45,0,0,0,9.44-9.44V119.52l40.5-17.57a2.75,2.75,0,0,0-.21-5.13L122.35,65.37a2.73,2.73,0,0,0-1.86,0C89,77.34,37.16,96.38,32.35,96.67a2.75,2.75,0,0,0-1.07,5.28l23.94,10.39ZM53.6,152.19l2.84-16.8a2.75,2.75,0,0,0-.95-2.57,2,2,0,1,1,3.36-1.57,2,2,0,0,1-.51,1.34,2.74,2.74,0,0,0-.65,2.18l2.4,17.41Zm115.08,12.11a3.94,3.94,0,0,1-3.93,3.93H87.15a3.94,3.94,0,0,1-3.93-3.93V124.48l38.66,16.77a2.75,2.75,0,0,0,2.19,0l44.61-19.35ZM40.72,100c19.92-6.21,67.74-24.21,80.79-29.15L206,99.73l-83,36L68.17,112l46.27-6.11a16.69,16.69,0,0,0,8.53,2c6.38,0,11.19-2.54,11.19-5.91S129.35,96,123,96c-5.5,0-9.83,1.89-10.92,4.57L58.36,107.7Zm73.82,1.9c0-1.29,3.29-3.16,8.44-3.16s8.44,1.87,8.44,3.16-3.29,3.16-8.44,3.16S114.53,103.24,114.53,101.95Z" transform="translate(-29.62 -65.22)"/></g></svg>