<svg id="Layer_1" data-name="Layer 1" xmlns="http://www.w3.org/2000/svg" viewBox="0 0 169.32 171.12"><defs><style>.cls-1{fill:#fff;}</style></defs><title>Services</title><path class="cls-1" d="M123,168.57a49.22,49.22,0,1,1,49.22-49.22A49.28,49.28,0,0,1,123,168.57Zm0-86.85a37.63,37.63,0,1,0,37.63,37.63A37.67,37.67,0,0,0,123,81.73Z" transform="translate(-38.35 -33.79)"/><path class="cls-1" d="M196.87,132.07c-4.52-2.38-9.1-4.31-10.63-4.94,0-.32.1-.65.15-1,.28-4.09.39-6.83.39-6.83s-.11-2.74-.39-6.83c-.06-.3-.1-.63-.15-1,1.53-.63,6.11-2.56,10.63-4.94,2.75-1.43,5.54-3,7.51-4.23l3.28-2.09-.83-3.25L206,93.75,204.62,90l-1.37-3.69c-.47-1.16-1-2.2-1.44-3.12l-1.46-3A122.5,122.5,0,0,0,188,82.32c-5,1.08-9.72,2.54-11.31,3l-.5-.83c-1.19-1.67-2.25-3-2.95-4l-.83-1.11-.33-.36-1.27-1.39-1.45-1.6a17.48,17.48,0,0,0-2-2l-.72-.65c.75-1.42,3-5.87,5-10.66,1.23-2.92,2.23-5.77,3-8l1.19-3.73-2.68-2c-1.58-1.24-3.94-2.52-6.21-3.94a64.15,64.15,0,0,0-6.53-3.4l-3-1.43S153,45,149.27,49.9c-1.9,2.45-3.67,5-4.94,6.84-.84,1.24-1.44,2.19-1.78,2.73-.31-.09-.62-.19-.92-.27L136.84,58,135,57.68l-1.86-.28a31.43,31.43,0,0,0-4.92-.52l-1-.05c-.36-1.64-1.47-6.51-3-11.4-1.84-5.84-4.35-11.63-4.35-11.63l-3.33.18c-2,.09-4.64.61-7.29,1a61.3,61.3,0,0,0-7.19,1.59l-3.24.85s-.1,1.58-.15,4-.05,5.51.08,8.61c.19,5.11.8,10,1,11.65-.3.12-.6.25-.88.38L94.4,64.15c-1,.59-1.61,1-1.61,1l-1.61,1L89.34,67.2c-.7.45-1.43,1.05-2.26,1.65l-.78.58-2.59-2c-1.85-1.36-4.44-3.19-7-4.81-5.17-3.29-10.83-6.13-10.83-6.13l-2.45,2.27-4.95,5.44c-1.71,2-3.26,4.24-4.46,5.84a22.1,22.1,0,0,0-1.38,2l-.48.78s3.8,5.1,8,9.64c3.37,3.79,7.11,7.23,8.31,8.31-.14.28-.31.58-.44.85a40.82,40.82,0,0,0-2,4.51l-.64,1.77-.65,1.76a44.76,44.76,0,0,0-1.33,4.77c-.08.3-.16.62-.23.93-1.68.06-6.73.31-11.68,1-6.11.8-12.29,2.28-12.29,2.28l-.13.91a18.32,18.32,0,0,0-.23,2.41l-.36,7.33.36,7.33a18.32,18.32,0,0,0,.23,2.41l.13.91s6.19,1.47,12.29,2.28c4.95.72,10,1,11.68,1,.08.31.15.64.23.93A44.7,44.7,0,0,0,64.61,139l.65,1.76.64,1.77a40.82,40.82,0,0,0,2,4.51c.12.27.3.57.44.85-1.19,1.08-4.93,4.52-8.31,8.31-4.16,4.54-8,9.64-8,9.64l.48.78a22.1,22.1,0,0,0,1.38,2c1.21,1.6,2.75,3.79,4.46,5.84l4.95,5.44,2.45,2.27s5.66-2.84,10.83-6.13c2.59-1.62,5.19-3.45,7-4.81l2.59-2,.78.58c.83.6,1.55,1.21,2.26,1.65l1.85,1.12,1.61,1s.57.37,1.61,1l4.46,2.15c.28.13.58.25.88.38-.21,1.6-.82,6.54-1,11.65-.13,3.1-.13,6.24-.08,8.61s.15,4,.15,4l3.24.85a61.17,61.17,0,0,0,7.19,1.59c2.65.38,5.29.9,7.29,1l3.33.18s2.5-5.79,4.35-11.63c1.55-4.89,2.67-9.76,3-11.4l1-.05a31.37,31.37,0,0,0,4.92-.51L135,181l1.86-.29,4.8-1.24c.3-.07.61-.17.92-.27.34.54.94,1.49,1.78,2.73,1.27,1.89,3,4.39,4.94,6.84,3.76,4.92,8.14,9.58,8.14,9.58l3-1.43a64,64,0,0,0,6.53-3.4c2.27-1.42,4.63-2.7,6.21-3.94l2.68-2-1.19-3.73c-.75-2.24-1.75-5.08-3-8-2-4.79-4.25-9.23-5-10.66l.72-.65a17.53,17.53,0,0,0,2-2l1.45-1.6,1.27-1.39.33-.36.83-1.11c.7-1,1.76-2.31,2.95-4l.5-.83c1.58.5,6.33,2,11.31,3a122.3,122.3,0,0,0,12.33,2.09l1.46-3c.42-.91,1-2,1.44-3.12l1.37-3.69L206,145l.89-3.32.83-3.25-3.28-2.09C202.41,135.08,199.62,133.5,196.87,132.07Zm-25-7.46c-.32,1.54-.42,3.39-.9,5.29a43.28,43.28,0,0,1-1.75,5.88,49.8,49.8,0,0,1-5.14,10.27l-2.27,3.05-.63.86-.26.28-1,1.06-1.11,1.23a11,11,0,0,1-1.52,1.52,40.72,40.72,0,0,1-4.1,3.48c-.8.58-1.58,1.23-2.43,1.81L148.11,161a17.76,17.76,0,0,1-2.76,1.46c-.94.43-1.83.92-2.73,1.31-1.87.59-3.53,1.4-5.06,1.75s-2.79.71-3.67,1l-1.43.21-1.42.21a21,21,0,0,1-3.78.4,33.38,33.38,0,0,1-5.39,0c-1-.07-2,0-3-.17l-3.09-.48a16.58,16.58,0,0,1-3.05-.65l-2.93-.74c-1.81-.75-3.59-1.24-5-1.92s-2.59-1.26-3.42-1.64-1.23-.75-1.23-.75l-1.23-.75-1.42-.85c-.54-.34-1.09-.82-1.73-1.28l-2-1.51c-.69-.58-1.36-1.26-2.1-1.91a49.81,49.81,0,0,1-4.3-4.43A49.16,49.16,0,0,1,81,140.58a28.3,28.3,0,0,1-1.56-3.45L79,135.78l-.5-1.35a31.49,31.49,0,0,1-1-3.65A52.46,52.46,0,0,1,76,119.35a52.45,52.45,0,0,1,1.44-11.43,31.49,31.49,0,0,1,1-3.65l.5-1.35.49-1.35A28.3,28.3,0,0,1,81,98.12a49.18,49.18,0,0,1,6.26-9.66A49.9,49.9,0,0,1,91.57,84c.74-.65,1.41-1.33,2.1-1.91l2-1.51c.64-.46,1.18-.94,1.73-1.28l1.42-.84,1.23-.75s.44-.29,1.23-.75,2-.94,3.42-1.64,3.19-1.17,5-1.92l2.93-.74a16.53,16.53,0,0,1,3.05-.65l3.09-.48c1-.12,2.05-.1,3-.17a33.31,33.31,0,0,1,5.39,0,21,21,0,0,1,3.78.4l1.42.21,1.43.21c.88.24,2.14.58,3.67,1s3.19,1.16,5.06,1.75c.9.39,1.79.88,2.73,1.31a17.82,17.82,0,0,1,2.76,1.46l2.68,1.61c.85.59,1.63,1.24,2.43,1.81a40.72,40.72,0,0,1,4.1,3.48,11,11,0,0,1,1.52,1.52l1.11,1.23,1,1.06.26.28.63.86,2.27,3.05a49.78,49.78,0,0,1,5.14,10.27,43.25,43.25,0,0,1,1.75,5.88c.48,1.9.59,3.75.9,5.29l.3,5.26Z" transform="translate(-38.35 -33.79)"/></svg>